<svg xmlns="http://www.w3.org/2000/svg" version="1.1" xmlns:xlink="http://www.w3.org/1999/xlink" xmlns:svgjs="http://svgjs.dev/svgjs" width="128" height="128" viewBox="0 0 128 128"><g transform="matrix(0.8046875,0,0,0.8046875,12.333870967741937,16.595831866852727)"><svg viewBox="0 0 155 143" data-background-color="#0b022d" preserveAspectRatio="xMidYMid meet" height="118" width="128" xmlns="http://www.w3.org/2000/svg" xmlns:xlink="http://www.w3.org/1999/xlink"><g id="tight-bounds" transform="matrix(1,0,0,1,0.25,-0.10902636916836173)"><svg viewBox="0 0 154.5 143.2180527383367" height="143.2180527383367" width="154.5"><g><svg viewBox="0 0 154.5 143.2180527383367" height="143.2180527383367" width="154.5"><g><svg viewBox="0 0 154.5 143.2180527383367" height="143.2180527383367" width="154.5"><g><svg viewBox="0 0 154.5 143.2180527383367" height="143.2180527383367" width="154.5"><g><svg viewBox="0 0 154.5 143.2180527383367" height="143.2180527383367" width="154.5"><g transform="matrix(1,0,0,1,0,0)"><svg width="154.5" viewBox="3.65 -35.7 49.300000000000004 45.7" height="143.2180527383367" data-palette-color="#f7fff7"><path d="M3.65 6L3.65 2.4 26.95 2.4 26.95 6 3.65 6ZM45.95-32.2L45.95-32.2Q45.95-33.65 46.97-34.68 48-35.7 49.45-35.7L49.45-35.7Q50.9-35.7 51.92-34.68 52.95-33.65 52.95-32.2L52.95-32.2Q52.95-30.75 51.92-29.73 50.9-28.7 49.45-28.7L49.45-28.7Q48-28.7 46.97-29.73 45.95-30.75 45.95-32.2ZM37.65-21.2L37.65-24.8 51.45-24.8 51.45 6.1Q51.45 7.8 50.37 8.9 49.3 10 47.6 10L47.6 10 36.45 10 36.45 6.4 46.2 6.4Q47.55 6.4 47.55 4.9L47.55 4.9 47.55-21.2 37.65-21.2Z" opacity="1" transform="matrix(1,0,0,1,0,0)" fill="#f7fff7" class="undefined-text-0" data-fill-palette-color="primary" id="text-0"></path></svg></g></svg></g></svg></g></svg></g><g></g></svg></g><defs></defs></svg><rect width="154.5" height="143.2180527383367" fill="none" stroke="none" visibility="hidden"></rect></g></svg></g></svg>