<svg xmlns="http://www.w3.org/2000/svg" version="1.1" xmlns:xlink="http://www.w3.org/1999/xlink" xmlns:svgjs="http://svgjs.dev/svgjs" width="1000" height="623" viewBox="0 0 1000 623"><g transform="matrix(1,0,0,1,-0.6060606060606233,0.2522267206477409)"><svg viewBox="0 0 396 247" data-background-color="#ffffff" preserveAspectRatio="xMidYMid meet" height="623" width="1000" xmlns="http://www.w3.org/2000/svg" xmlns:xlink="http://www.w3.org/1999/xlink"><g id="tight-bounds" transform="matrix(1,0,0,1,0.2400000000000091,-0.09999999999999432)"><svg viewBox="0 0 395.52 247.2" height="247.2" width="395.52"><g><svg></svg></g><g><svg viewBox="0 0 395.52 247.2" height="247.2" width="395.52"><g transform="matrix(1,0,0,1,126.54614251781473,47.215199999999996)"><svg viewBox="0 0 142.42771496437052 152.7696" height="152.7696" width="142.42771496437052"><g><svg viewBox="0 0 142.42771496437052 152.7696" height="152.7696" width="142.42771496437052"><g><svg viewBox="0 0 142.42771496437052 152.7696" height="152.7696" width="142.42771496437052"><g><svg viewBox="0 0 142.42771496437052 152.7696" height="152.7696" width="142.42771496437052"><g id="textblocktransform"><svg viewBox="0 0 142.42771496437052 152.7696" height="152.7696" width="142.42771496437052" id="textblock"><g><svg viewBox="0 0 142.42771496437052 152.7696" height="152.7696" width="142.42771496437052"><g transform="matrix(1,0,0,1,0,0)"><svg width="142.42771496437052" viewBox="1.75 -35 39.25 42.099998474121094" height="152.7696" data-palette-color="#a437db"><path d="M8.7 4L8.7 4Q10.05 2.55 10.8 0.43 11.55-1.7 11.55-4.5L11.55-4.5 11.55-35 1.75-35 1.75-33.65 10.15-33.65 10.15-4.65Q10.15-2.25 9.53-0.35 8.9 1.55 7.75 2.85L7.75 2.85Q6.65 4.2 5.1 4.93 3.55 5.65 1.75 5.75L1.75 5.75 1.75 7.1Q3.8 7.05 5.58 6.25 7.35 5.45 8.7 4ZM37.5-17.4L37.5-17.4 41-17.4 41-18.75 33.15-18.75 33.15-17.4 36.05-17.4Q34-13.3 31.97-9.28 29.95-5.25 28.15-1.55L28.15-1.55Q26.2-5.5 24.22-9.47 22.25-13.45 20.25-17.4L20.25-17.4 23.7-17.4 23.7-18.75 15.05-18.75 15.05-17.4 18.75-17.4Q21.15-12.7 23.47-8.13 25.8-3.55 28.15 1.15L28.15 1.15Q30.5-3.55 32.82-8.13 35.15-12.7 37.5-17.4Z" opacity="1" transform="matrix(1,0,0,1,0,0)" fill="#a437db" class="undefined-text-0" data-fill-palette-color="primary" id="text-0"></path></svg></g></svg></g></svg></g></svg></g></svg></g></svg></g></svg></g><path d="M86.673 41.215L86.673 0 333.873 0 333.873 247.2 86.673 247.2 86.673 205.985 100.449 205.985 100.449 233.423 320.096 233.423 320.096 13.777 100.449 13.777 100.449 41.215Z" fill="#a437db" stroke="transparent" data-fill-palette-color="primary"></path></svg></g><defs></defs></svg><rect width="395.52" height="247.2" fill="none" stroke="none" visibility="hidden"></rect></g></svg></g></svg>