<svg xmlns="http://www.w3.org/2000/svg" version="1.1" xmlns:xlink="http://www.w3.org/1999/xlink" xmlns:svgjs="http://svgjs.dev/svgjs" width="1000" height="393" viewBox="0 0 1000 393"><g transform="matrix(1,0,0,1,-0.6060579759297298,-0.055818676577985116)"><svg viewBox="0 0 396 156" data-background-color="#0b022d" preserveAspectRatio="xMidYMid meet" height="393" width="1000" xmlns="http://www.w3.org/2000/svg" xmlns:xlink="http://www.w3.org/1999/xlink"><g id="tight-bounds" transform="matrix(1,0,0,1,0.2399992839468723,0.02215703192408114)"><svg viewBox="0 0 395.52 155.95568593615184" height="155.95568593615184" width="395.52"><g><svg viewBox="0 0 395.52 155.95568593615184" height="155.95568593615184" width="395.52"><g><svg viewBox="0 0 395.52 155.95568593615184" height="155.95568593615184" width="395.52"><g id="textblocktransform"><svg viewBox="0 0 395.52 155.95568593615184" height="155.95568593615184" width="395.52" id="textblock"><g><svg viewBox="0 0 395.52 155.95568593615184" height="155.95568593615184" width="395.52"><g transform="matrix(1,0,0,1,0,0)"><svg width="395.52" viewBox="3.6500000953674316 -35.70000076293945 115.88999938964844 45.70000076293945" height="155.95568593615184" data-palette-color="#f7fff7"><path d="M3.65 6L3.65 2.4 26.95 2.4 26.95 6 3.65 6ZM76.55-32.2L76.55-32.2Q76.55-33.65 77.57-34.68 78.6-35.7 80.05-35.7L80.05-35.7Q81.5-35.7 82.52-34.68 83.55-33.65 83.55-32.2L83.55-32.2Q83.55-30.75 82.52-29.73 81.5-28.7 80.05-28.7L80.05-28.7Q78.6-28.7 77.57-29.73 76.55-30.75 76.55-32.2ZM68.25-21.2L68.25-24.8 82.05-24.8 82.05 6.1Q82.05 7.8 80.97 8.9 79.9 10 78.2 10L78.2 10 67.05 10 67.05 6.4 76.8 6.4Q78.15 6.4 78.15 4.9L78.15 4.9 78.15-21.2 68.25-21.2ZM119.54-24.8L110.89 0 103.19 0 94.54-24.8 99.14-24.8 106.74-1.8 107.34-1.8 114.94-24.8 119.54-24.8Z" opacity="1" transform="matrix(1,0,0,1,0,0)" fill="#f7fff7" class="undefined-text-0" data-fill-palette-color="primary" id="text-0"></path></svg></g></svg></g></svg></g></svg></g><g></g></svg></g><defs></defs></svg><rect width="395.52" height="155.95568593615184" fill="none" stroke="none" visibility="hidden"></rect></g></svg></g></svg>